<svg width="155" height="232" viewBox="0 0 155 232" fill="none" xmlns="http://www.w3.org/2000/svg">
<path d="M43.5652 64.4165L62.4005 25.2032L71.0027 7.2921L69.6166 4.3997C68.3292 1.71157 65.6108 0 62.6269 0H7.75285C5.08689 0 2.61106 1.37096 1.18679 3.62742C-0.228979 5.88388 -0.387966 8.70929 0.763146 11.1092L34.97 82.3257L43.5652 64.4165Z" fill="#B06874"/>
<path d="M153.723 3.62742C152.299 1.37096 149.823 0 147.157 0H92.2902C89.3072 0 86.5874 1.71157 85.3009 4.3997L42.9296 92.6258C42.899 92.6942 42.8914 92.7622 42.8608 92.8301C42.7933 92.982 42.7622 93.1485 42.7018 93.308C42.4296 94.0435 42.2711 94.8228 42.2328 95.6475C42.2248 95.7617 42.1644 95.8598 42.1644 95.982V99.9797C52.6985 94.4662 64.6564 91.3006 77.3484 91.3006C90.0493 91.3006 101.999 94.4667 112.541 99.9877V97.7464L154.147 11.1101C155.298 8.70929 155.139 5.88435 153.723 3.62742Z" fill="#B06874"/>
<path d="M77.3484 102.933C41.7022 102.933 12.8107 131.824 12.8107 167.47C12.8107 203.109 41.7022 232 77.3484 232C112.987 232 141.879 203.109 141.879 167.47C141.88 131.824 112.987 102.933 77.3484 102.933ZM115.707 156.202L98.4779 173.006C97.9401 173.536 97.6896 174.294 97.8189 175.036L101.886 198.763C102.029 199.618 101.673 200.489 100.969 201.003C100.265 201.519 99.3262 201.579 98.561 201.178L77.2512 189.979C76.5851 189.629 75.7817 189.629 75.1146 189.979L53.8049 201.178C53.0397 201.579 52.1004 201.519 51.3965 201.003C50.6926 200.489 50.3369 199.617 50.4808 198.763L54.5479 175.036C54.6758 174.294 54.4257 173.536 53.8889 173.006L36.6599 156.202C36.032 155.588 35.8122 154.68 36.0768 153.854C36.3504 153.02 37.0694 152.415 37.9252 152.294L61.757 148.833C62.4995 148.726 63.1435 148.258 63.4766 147.576L74.1324 125.993C74.5188 125.213 75.3142 124.712 76.1846 124.712C77.0554 124.712 77.8494 125.213 78.2363 125.993L88.8921 147.576C89.2247 148.258 89.8682 148.726 90.6117 148.833L114.443 152.294C115.299 152.415 116.019 153.02 116.292 153.854C116.555 154.68 116.334 155.588 115.707 156.202Z" fill="#B06874"/>
</svg>
