<svg width="155" height="232" viewBox="0 0 155 232" fill="none" xmlns="http://www.w3.org/2000/svg">
<path d="M43.5652 64.4165L62.4005 25.2032L71.0027 7.2921L69.6166 4.3997C68.3292 1.71157 65.6108 0 62.6269 0H7.75285C5.08689 0 2.61106 1.37096 1.18679 3.62742C-0.228979 5.88388 -0.387966 8.70929 0.763146 11.1092L34.97 82.3257L43.5652 64.4165Z" fill="#FFC700"/>
<path d="M153.723 3.62742C152.299 1.37096 149.823 0 147.157 0H92.2903C89.3073 0 86.5876 1.71157 85.3011 4.3997L42.9298 92.6258C42.8991 92.6942 42.8915 92.7622 42.8609 92.8301C42.7934 92.982 42.7623 93.1485 42.7019 93.308C42.4297 94.0435 42.2712 94.8228 42.233 95.6475C42.2249 95.7617 42.1646 95.8598 42.1646 95.982V99.9797C52.6986 94.4662 64.6565 91.3006 77.3485 91.3006C90.0494 91.3006 101.999 94.4667 112.541 99.9877V97.7464L154.147 11.1101C155.298 8.70929 155.139 5.88435 153.723 3.62742Z" fill="#FFC700"/>
<path d="M77.3485 102.933C41.7023 102.933 12.8108 131.824 12.8108 167.47C12.8108 203.109 41.7023 232 77.3485 232C112.987 232 141.879 203.109 141.879 167.47C141.88 131.824 112.987 102.933 77.3485 102.933ZM115.707 156.202L98.4781 173.006C97.9402 173.536 97.6897 174.294 97.819 175.036L101.887 198.763C102.03 199.618 101.673 200.489 100.969 201.003C100.266 201.519 99.3263 201.579 98.5611 201.178L77.2514 189.979C76.5852 189.629 75.7818 189.629 75.1147 189.979L53.805 201.178C53.0398 201.579 52.1005 201.519 51.3966 201.003C50.6927 200.489 50.337 199.617 50.4809 198.763L54.548 175.036C54.6759 174.294 54.4258 173.536 53.889 173.006L36.66 156.202C36.0321 155.588 35.8123 154.68 36.0769 153.854C36.3506 153.02 37.0695 152.415 37.9253 152.294L61.7571 148.833C62.4997 148.726 63.1436 148.258 63.4767 147.576L74.1325 125.993C74.5189 125.213 75.3143 124.712 76.1847 124.712C77.0556 124.712 77.8496 125.213 78.2364 125.993L88.8922 147.576C89.2248 148.258 89.8683 148.726 90.6118 148.833L114.444 152.294C115.299 152.415 116.019 153.02 116.292 153.854C116.555 154.68 116.334 155.588 115.707 156.202Z" fill="#FFC700"/>
</svg>
