<svg width="33" height="33" viewBox="0 0 33 33" fill="none" xmlns="http://www.w3.org/2000/svg">
<g clip-path="url(#clip0)">
<path d="M20.6379 15.7137L17.4346 22.1203C17.0478 22.9002 15.9264 22.8744 15.5719 22.0816L11.9045 13.9412L9.97088 18.5625H3.90584L15.6685 30.583C16.1262 31.0535 16.8674 31.0535 17.325 30.583L29.0941 18.5625H22.0623L20.6379 15.7137ZM30.5314 4.76309L30.3767 4.60196C27.0574 1.21172 21.624 1.21172 18.2982 4.60196L16.5 6.44531L14.7017 4.6084C11.3824 1.21172 5.94256 1.21172 2.62322 4.6084L2.46854 4.76309C-0.670331 7.97285 -0.805683 13.084 1.99803 16.5H8.59803L10.9119 10.9441C11.2599 10.1127 12.433 10.0934 12.8068 10.9184L16.558 19.2521L19.7162 12.9422C20.0965 12.1816 21.1793 12.1816 21.5596 12.9422L23.3385 16.5H31.0019C33.8056 13.084 33.6703 7.97285 30.5314 4.76309Z" fill="#A4A4A4"/>
</g>
<defs>
<clipPath id="clip0">
<rect width="33" height="33" fill="white"/>
</clipPath>
</defs>
</svg>
