<svg width="33" height="33" viewBox="0 0 33 33" fill="none" xmlns="http://www.w3.org/2000/svg">
<g clip-path="url(#clip0)">
<path d="M14.4221 8.42725L9.96643 1.0016C9.78323 0.696132 9.52404 0.443321 9.21409 0.267792C8.90415 0.0922642 8.55403 4.37331e-06 8.19784 0H1.03387C0.199202 0 -0.289353 0.939082 0.188889 1.62293L7.36059 11.8684C9.27614 10.0785 11.7125 8.85006 14.4221 8.42725ZM31.9675 0H24.8035C24.0791 0 23.4075 0.380273 23.035 1.0016L18.5793 8.42725C21.2889 8.85006 23.7252 10.0785 25.6408 11.8678L32.8125 1.62293C33.2907 0.939082 32.8022 0 31.9675 0ZM16.5007 10.3125C10.2358 10.3125 5.15694 15.3914 5.15694 21.6562C5.15694 27.9211 10.2358 33 16.5007 33C22.7655 33 27.8444 27.9211 27.8444 21.6562C27.8444 15.3914 22.7655 10.3125 16.5007 10.3125ZM22.4639 20.4484L20.0192 22.8306L20.5973 26.1963C20.7005 26.7996 20.065 27.2604 19.5242 26.9756L16.5007 25.3868L13.4778 26.9756C12.9364 27.2624 12.3016 26.799 12.4047 26.1963L12.9828 22.8306L10.5381 20.4484C10.0986 20.0204 10.3415 19.2734 10.9474 19.1858L14.3267 18.6933L15.8368 15.6305C15.9728 15.3547 16.2358 15.2187 16.4994 15.2187C16.7643 15.2187 17.0292 15.3566 17.1652 15.6305L18.6753 18.6933L22.0546 19.1858C22.6605 19.2734 22.9035 20.0204 22.4639 20.4484Z" fill="#A4A4A4"/>
</g>
<defs>
<clipPath id="clip0">
<rect width="33" height="33" fill="white"/>
</clipPath>
</defs>
</svg>
