<svg width="1200" height="501" viewBox="0 0 1200 501" fill="none" xmlns="http://www.w3.org/2000/svg">
<path d="M400 100C400 210.456 310.456 300 200 300V100H400Z" fill="#FF743C"/>
<path d="M200 500C89.544 500 0 410.456 0 300H200V500Z" fill="#FF743C"/>
<path d="M600 300V300C600 410.456 510.456 500 400 500V500L400 300H600Z" fill="#F0F1F1"/>
<path d="M400 500V500C289.542 500 200 410.456 200 300V300H400V500Z" fill="#6ED47C"/>
<path d="M400.001 402.069V402.069C343.629 402.069 297.932 356.372 297.932 300V300H400.001V402.069Z" fill="#D5E155"/>
<path d="M599.31 0H500.159C444.843 0 400 44.772 400 100V100H499.151C554.469 100 599.31 55.228 599.31 0V0Z" fill="#2D3652"/>
<path d="M400 100H600C710.456 100 800 189.544 800 300V300H600C489.544 300 400 210.456 400 100V100Z" fill="#2D3652"/>
<path d="M600 200H699.494C755.002 200 800 244.772 800 300V300H700.506C644.996 300 600 255.228 600 200V200Z" fill="#6ED47C"/>
<path d="M800 500V300C800 189.544 889.544 100 1000 100V100V300C1000 410.456 910.456 500 800 500V500Z" fill="#6ED47C"/>
<path d="M900 299.31V200.158C900 144.843 944.772 100 1000 100V100V199.152C1000 254.468 955.228 299.31 900 299.31V299.31Z" fill="#2D3652"/>
<path d="M740.689 99.3105C740.689 66.1725 767.551 39.3105 800.689 39.3105V39.3105C833.827 39.3105 860.689 66.1725 860.689 99.3105V99.3105C860.689 132.449 833.827 159.311 800.689 159.311V159.311C767.551 159.311 740.689 132.449 740.689 99.3105V99.3105Z" fill="#FF743C"/>
<path d="M771.035 99.6562C771.035 83.0882 784.467 69.6562 801.035 69.6562V69.6562C817.603 69.6562 831.035 83.0882 831.035 99.6562V99.6562C831.035 116.224 817.603 129.656 801.035 129.656V129.656C784.467 129.656 771.035 116.224 771.035 99.6562V99.6562Z" fill="#FFC700"/>
<path d="M373.104 248.965C373.104 234.11 385.145 222.068 400 222.068C414.855 222.068 426.897 234.11 426.897 248.965C426.897 263.82 414.855 275.861 400 275.861C385.145 275.861 373.104 263.82 373.104 248.965Z" fill="#FF743C"/>
<path d="M600 400C600 344.772 644.772 300 700 300V300C755.228 300 800 344.772 800 400V400C800 455.228 755.228 500 700 500V500C644.772 500 600 455.228 600 400V400Z" fill="#FF743C"/>
<path d="M644.828 398.966C644.828 368.306 669.685 343.449 700.345 343.449V343.449C731.006 343.449 755.863 368.306 755.863 398.966V398.966C755.863 429.627 731.006 454.484 700.345 454.484V454.484C669.685 454.484 644.828 429.627 644.828 398.966V398.966Z" fill="#2D3652"/>
<path d="M1000 400.311C1000 455.539 1044.77 500.311 1100 500.311V500.311C1155.23 500.311 1200 455.539 1200 400.311V400.311C1200 345.083 1155.23 300.311 1100 300.311H1000V400.311Z" fill="#FFC700"/>
<path d="M1000 352.037C1000 380.602 1023.16 403.76 1051.73 403.76V403.76C1080.29 403.76 1103.45 380.602 1103.45 352.037V352.037C1103.45 323.469 1080.29 300.311 1051.73 300.311H1000V352.037Z" fill="#FF743C"/>
<path d="M1099.31 99.3105C1154.54 99.3105 1199.31 144.083 1199.31 199.311V199.311C1199.31 254.539 1154.54 299.311 1099.31 299.311V299.311C1044.08 299.311 999.311 254.539 999.311 199.311V199.311C999.311 144.083 1044.08 99.3105 1099.31 99.3105V99.3105Z" fill="#FF743C"/>
<path d="M1100.34 144.139C1131 144.139 1155.86 168.995 1155.86 199.656V199.656C1155.86 230.317 1131 255.173 1100.34 255.173V255.173C1069.68 255.173 1044.83 230.317 1044.83 199.656V199.656C1044.83 168.995 1069.68 144.139 1100.34 144.139V144.139Z" fill="#2D3652"/>
</svg>
