<svg width="63" height="62" viewBox="0 0 63 62" fill="none" xmlns="http://www.w3.org/2000/svg">
<path d="M60.5868 9.25861e-07H54.8458C54.649 -0.000221194 54.4542 0.039525 54.2733 0.116829C54.0923 0.194134 53.929 0.307386 53.7931 0.449718C53.6572 0.59205 53.5517 0.760496 53.4828 0.944843C53.414 1.12919 53.3833 1.32559 53.3927 1.52215L53.877 11.5439C51.0608 8.22528 47.5554 5.56012 43.6046 3.73383C39.6538 1.90753 35.3525 0.963958 31 0.968751C14.4513 0.968751 0.956649 14.4743 0.968758 31.023C0.980868 47.5983 14.4223 61.0313 31 61.0313C38.4364 61.0418 45.6103 58.2828 51.1234 53.2922C51.2706 53.1604 51.3895 52.9999 51.4726 52.8206C51.5558 52.6413 51.6015 52.4469 51.6069 52.2493C51.6123 52.0518 51.5774 51.8552 51.5043 51.6716C51.4311 51.488 51.3213 51.3212 51.1815 51.1815L47.0643 47.0643C46.8037 46.8038 46.4539 46.652 46.0857 46.6396C45.7174 46.6273 45.3583 46.7553 45.0808 46.9977C41.8276 49.8599 37.7792 51.6625 33.4753 52.1652C29.1715 52.6679 24.8166 51.8468 20.9914 49.8113C17.1661 47.7758 14.0521 44.6227 12.0646 40.7723C10.0771 36.9219 9.31042 32.5572 9.86681 28.26C10.4232 23.9627 12.2762 19.9372 15.1789 16.7199C18.0815 13.5027 21.8958 11.2467 26.1133 10.2526C30.3309 9.25846 34.7512 9.57352 38.7851 11.1558C42.819 12.738 46.2748 15.5122 48.6918 19.1086L36.3972 18.5189C36.2006 18.5095 36.0042 18.5402 35.8199 18.609C35.6355 18.6779 35.4671 18.7834 35.3247 18.9193C35.1824 19.0552 35.0691 19.2185 34.9918 19.3995C34.9145 19.5804 34.8748 19.7752 34.875 19.972V25.7131C34.875 26.0984 35.0281 26.4681 35.3006 26.7406C35.5731 27.0131 35.9427 27.1662 36.3281 27.1662H60.5868C60.9722 27.1662 61.3419 27.0131 61.6144 26.7406C61.8869 26.4681 62.04 26.0984 62.04 25.7131V1.45313C62.04 1.06773 61.8869 0.698125 61.6144 0.425611C61.3419 0.153098 60.9722 9.25861e-07 60.5868 9.25861e-07Z" fill="#A4A4A4"/>
</svg>
