<svg width="417" height="512" viewBox="0 0 417 512" fill="none" xmlns="http://www.w3.org/2000/svg">
<path d="M416 304C416 418.9 322.9 512 208 512C93.1 512 0 418.9 0 304C0 200 76.3 113.8 176 98.5V64H148C141.4 64 136 58.6 136 52V12C136 5.4 141.4 0 148 0H268C274.6 0 280 5.4 280 12V52C280 58.6 274.6 64 268 64H240V98.5C277.5 104.3 311.7 120.1 339.7 143.1L367.2 115.6C371.9 110.9 379.5 110.9 384.2 115.6L412.5 143.9C417.2 148.6 417.2 156.2 412.5 160.9L383.1 190.3L382.5 190.9C403.7 223.3 416 262.2 416 304ZM240 340V188.5C240 181.9 234.6 176.5 228 176.5H188C181.4 176.5 176 181.9 176 188.5V340C176 346.6 181.4 352 188 352H228C234.6 352 240 346.6 240 340Z" fill="#2F56DF"/>
</svg>
