<svg width="496" height="496" viewBox="0 0 496 496" fill="none" xmlns="http://www.w3.org/2000/svg">
<path d="M248 0C111 0 0 111 0 248C0 385 111 496 248 496C385 496 496 385 496 248C496 111 385 0 248 0ZM369.6 313.1C374.3 317.8 374.3 325.4 369.6 330.1L330 369.6C325.3 374.3 317.7 374.3 313 369.6L248 304L182.9 369.6C178.2 374.3 170.6 374.3 165.9 369.6L126.4 330C121.7 325.3 121.7 317.7 126.4 313L192 248L126.4 182.9C121.7 178.2 121.7 170.6 126.4 165.9L166 126.3C170.7 121.6 178.3 121.6 183 126.3L248 192L313.1 126.4C317.8 121.7 325.4 121.7 330.1 126.4L369.7 166C374.4 170.7 374.4 178.3 369.7 183L304 248L369.6 313.1Z" fill="#F43F5E"/>
</svg>
